<svg width="512" height="512" viewBox="0 0 512 512" fill="none" xmlns="http://www.w3.org/2000/svg">
<path d="M85.9915 37.3466C90.1915 36.8024 98.058 37.6642 102.444 37.9554L125.656 39.371L216.709 45.4176L369.836 55.903L420.35 59.3685C431.13 60.0975 442.161 60.6735 452.789 61.9655C467.28 63.7265 478.733 77.66 480.063 91.7705C480.609 97.5605 479.916 104.423 479.577 110.272L477.348 143.424L469.83 251.707L461.224 378.121L458.486 423.704C458.008 430.863 457.772 438.598 456.77 445.663C454.429 462.159 441.403 473.443 425.311 474.891C421.285 475.371 414.663 474.562 410.442 474.24C405.166 473.838 399.904 473.448 394.617 473.102L323.822 468.656L149.87 457.265L90.868 453.327C81.0435 452.679 71.0865 452.299 61.2995 451.324C55.183 450.715 50.2735 448.993 45.33 445.305C38.0779 439.894 32.9657 431.303 31.7472 422.326C31.0351 417.079 31.7655 409.576 32.1513 404.222L33.6147 383.567L39.4494 298.733L50.394 144.74L53.941 93.8635C54.585 84.512 54.993 75.0985 56.0375 65.808C57.2135 55.3485 63.248 46.9254 72.2675 41.6998C76.7665 39.0932 80.883 38.0374 85.9915 37.3466Z" fill="#CCCCCC"/>
<path d="M62.2144 76.258C62.1479 67 63.3339 58.8395 70.0724 51.877C74.6694 47.1281 82.1574 43.9695 88.7524 44.0758C97.1149 44.2106 105.774 44.8681 114.158 45.3869L153.205 47.8168L269.669 55.537L364.995 62.21L393.818 64.285C406.306 65.1355 418.974 64.279 428.533 73.909C440.124 85.5875 436.336 101.361 435.284 116.217L432.166 159.739L422.934 293.767L416.002 394.436L414.11 423.909C413.385 435.784 414.016 448.871 404.633 457.748C398.596 463.46 390.602 466.188 382.339 465.754C374.861 465.394 367.363 464.875 359.891 464.398L319.977 461.911L182.301 452.966L100.087 447.44L74.1454 445.683C69.6414 445.374 63.6544 445.208 59.3279 444.426C45.5183 441.929 37.4186 428.501 38.2469 415.05C38.4048 412.095 38.8048 409.254 38.9475 406.38C39.2504 393.374 40.9351 376.983 41.9062 363.656L47.0355 290.19L62.2144 76.258Z" fill="#E8E8E8"/>
<path d="M62.2144 76.258C62.1479 67 63.3339 58.8395 70.0724 51.877C74.6694 47.1281 82.1574 43.9695 88.7524 44.0758C97.1149 44.2106 105.774 44.8681 114.158 45.3869L153.205 47.8168L269.669 55.537L364.995 62.21L393.818 64.285C406.306 65.1355 418.974 64.279 428.533 73.909C440.124 85.5875 436.336 101.361 435.284 116.217L432.166 159.739L422.934 293.767L416.002 394.436L414.11 423.909C413.385 435.784 414.016 448.871 404.633 457.748C398.596 463.46 390.602 466.188 382.339 465.754C374.861 465.394 367.363 464.875 359.891 464.398L319.977 461.911L182.301 452.966L100.087 447.44L74.1454 445.683C69.6414 445.374 63.6544 445.208 59.3279 444.426C45.5183 441.929 37.4186 428.501 38.2469 415.05C38.4048 412.095 38.8048 409.254 38.9475 406.38C38.9568 408.988 39.2735 410.269 39.9961 412.753C45.654 432.201 65.1249 430.246 81.3359 431.022L110.293 432.675L211.497 438.719L322.783 445.509L359.361 447.754C365.853 448.161 372.307 448.606 378.83 448.978C388.263 449.656 397.111 443.566 401.291 435.302C404.654 428.653 404.164 420.017 404.549 412.623L406.019 386.072L411.911 288.177L420.274 162.764L422.701 127.551C423.196 120.65 423.802 113.728 424.177 106.823C424.208 103.606 424.57 99.726 423.456 96.65C419.656 86.16 411.569 82.3675 400.994 81.744C395.081 81.3955 389.185 81.0425 383.364 80.7005L353.943 78.765L249.499 71.5905L140.841 64.1485L106.781 61.7675C100.325 61.3095 93.8884 60.816 87.4184 60.4665C80.2309 60.0775 73.5214 62.262 68.3194 67.329C65.4449 70.129 63.9984 72.716 62.2144 76.258Z" fill="#E6E6E6"/>
<path d="M105.848 75.312C108.897 75.069 114.311 75.666 117.607 75.921L133.803 77.0665L196.015 81.371L330.638 90.456L372.333 93.35C378.329 93.764 384.364 93.8825 390.342 94.49C394.36 94.898 398.672 95.4655 402.236 97.505C406.43 99.905 409.478 104.538 410.676 109.15C412.107 114.656 409.195 144.46 408.67 152.02L403.481 226.321L401.261 259.74C400.828 266.766 400.441 273.877 399.795 280.883C399.546 283.583 398.836 286.331 397.415 288.644C394.128 293.994 390.056 295.97 384.231 297.448C380.449 297.796 374.118 297.268 370.278 297.009L351.568 295.742L284.549 291.321L159.632 283.074L116.811 280.156C109.047 279.62 101.143 279.164 93.4524 278.466C86.7589 277.858 80.1654 271.903 79.1109 265.213C78.2929 260.021 78.9304 254.573 79.3044 249.373L80.3204 234.802L83.9719 181.224L87.7524 122.005L88.8379 103.692C89.6014 90.22 89.5944 78.317 105.848 75.312Z" fill="#606060"/>
<path d="M96.23 92.533C97.7035 85.156 102.193 81.33 109.752 81.783C115.598 82.1335 121.421 82.6735 127.255 83.082L165.815 85.7395L289.787 94.2095L364.073 99.1415L381.318 100.333C385.937 100.618 390.644 100.737 395.169 101.653C398.317 102.289 401.356 104.732 402.932 107.468C405.83 112.5 404.331 120.866 403.93 126.631L402.26 150.022L397.156 221.761L394.467 262.297C394.053 268.99 394.088 276.095 392.86 282.634C391.843 286.598 388.282 290.642 383.998 290.942C381.988 291.083 379.664 290.837 377.621 290.742C369.372 290.359 360.44 290.262 352.267 289.248L174.585 277.154L119.673 273.5L104.144 272.554C100.633 272.355 97.054 272.24 93.583 271.775C88.5285 271.097 85.372 266.416 85.43 261.509C85.4965 255.888 85.967 250.324 86.357 244.728L88.5615 213.001L93.4845 136.076C94.391 121.935 95.666 106.622 96.23 92.533Z" fill="#0A0A0A"/>
<path d="M96.23 92.533C97.7035 85.156 102.193 81.33 109.752 81.783C115.598 82.1335 121.421 82.6735 127.255 83.082L165.815 85.7395L289.787 94.2095L364.073 99.1415L381.318 100.333C385.936 100.618 390.643 100.737 395.169 101.653C398.316 102.289 401.356 104.732 402.932 107.468C405.829 112.5 404.331 120.866 403.93 126.631L402.259 150.022L397.156 221.761L394.467 262.297C394.053 268.99 394.088 276.095 392.86 282.634C391.842 286.598 388.281 290.642 383.997 290.942C381.987 291.083 379.664 290.837 377.621 290.742C369.372 290.359 360.44 290.262 352.267 289.248C359.147 283.768 363.924 279.51 365.979 270.555C367.883 262.259 368.603 253.806 369.573 245.359L374.166 204.987L378.648 165.541C379.329 159.526 380.075 153.481 380.619 147.476C381.522 137.516 380.01 129.842 372.737 122.715C364.409 114.555 353.608 114.787 342.768 113.904L319.472 111.966L243.623 105.269L175.401 99.29L155.716 97.527C152.554 97.2295 147.038 96.557 144.066 96.611C141.456 96.0375 140.339 95.948 137.691 96.175C135.281 95.682 129.371 95.42 126.62 95.1455C116.645 94.15 106.126 93.9175 96.23 92.533Z" fill="#111111"/>
<path d="M137.691 96.175C140.34 95.948 141.456 96.0375 144.067 96.611C147.193 98.897 149.574 102.592 147.731 106.522C142.773 117.099 130.095 125.544 120.137 131.087C116.754 132.971 111.107 134.732 107.419 133.421C103.287 131.896 101.726 126.694 103.678 122.902C109.877 110.86 125.587 101.289 137.691 96.175Z" fill="#FEFEFE"/>
<path d="M165.584 111.576C174.045 111.848 175.301 121.295 170.877 126.432C161.959 136.791 143.729 155.067 130.268 157.317C126.923 157.134 122.472 155.644 121.922 151.927C120.903 145.034 127.566 138.768 132.12 134.501C140.461 126.686 154.225 113.595 165.584 111.576Z" fill="#FEFEFE"/>
<path d="M87.9363 375.506C90.854 375.341 96.4139 375.736 99.4395 375.916L118.194 377.043L186.306 380.859L304.732 387.95C323.241 389.061 341.896 389.849 360.266 391.205C376.128 392.376 376.141 404.469 375.074 416.251C373.969 428.456 375.392 435.49 360.856 439.439C355.683 439.598 349.489 439.032 344.233 438.691L319.357 437.14L231.372 432.046L135.211 426.183L106.065 424.506C99.2774 424.134 92.2835 423.698 85.5657 423.093C79.5573 422.553 72.9908 416.32 72.6615 410.463C72.2789 406.729 72.8602 402.993 73.0202 399.264C73.4947 388.227 73.1803 376.962 87.9363 375.506Z" fill="#141414"/>
<path d="M369.965 422.33C369.389 429.473 365.209 431.224 358.642 430.896C353.563 430.642 348.467 430.411 343.384 430.112L302.642 427.634L148.354 418.067L112.651 415.858C106.365 415.476 100.028 415.169 93.7546 414.642C92.1065 414.32 90.1979 414.421 88.7996 413.403C85.59 411.066 85.1706 408.7 85.3775 405.003C85.6838 399.522 85.9946 394.098 86.3529 388.615C86.5598 385.449 86.9899 383.377 89.6562 381.248C92.3536 379.131 96.4861 379.732 99.6707 380.116L279.938 390.736L335.123 394.106L352.023 395.063C367.09 395.836 373.045 394.683 370.709 412.894C370.398 415.315 370.547 420.324 369.965 422.33Z" fill="#9A9A9A"/>
<path d="M366.933 422.33C366.355 429.473 362.157 431.224 355.562 430.896C350.46 430.642 345.342 430.411 340.237 430.112L299.318 427.634L144.361 418.067L108.503 415.858C102.189 415.476 95.8256 415.169 89.5245 414.642C87.8693 414.32 85.9525 414.421 84.548 413.403C81.3245 411.066 80.9033 408.7 81.1111 405.003C81.4187 399.522 81.7309 394.098 82.0907 388.615C82.2985 385.449 82.7305 383.377 85.4084 381.248C88.1175 379.131 92.2679 379.732 95.4663 380.116C96.4393 385.707 95.9474 391.672 99.0762 396.669C105.532 406.978 120.301 405.993 131.154 406.699L162.963 408.797C220.165 412.617 276.929 416.792 334.185 419.922L359.862 421.474C361.361 421.574 366.089 421.623 366.933 422.33Z" fill="#FEFEFE"/>
<path d="M178.02 333.537C183.056 333.326 191.584 334.222 196.854 334.565L230.594 336.622L278.156 339.671C280.646 339.83 306.165 341.054 306.603 342.229C308.203 346.53 306.771 357.343 306.279 362.225C306.172 363.293 305.121 363.825 304.271 364.297C298.299 364.213 291.265 363.543 285.236 363.116L256.353 361.18L206.719 357.974C204.161 357.819 176.548 356.839 175.556 355.226C173.874 352.493 175.778 339.904 175.984 336.126C176.054 334.841 176.978 334.198 178.02 333.537Z" fill="#141414"/>
<path d="M182.559 340.679C206.975 341.616 231.254 343.446 255.637 344.944L284.021 346.682C289.304 347.004 295.371 347.198 300.525 347.84C300.499 351.279 300.319 354.044 299.755 357.432C297.855 357.601 290.563 356.93 288.382 356.772L266.577 355.297L181.984 350.06C181.966 347.185 182.276 343.526 182.559 340.679Z" fill="#92FFFE"/>
<path d="M364.412 326.179C364.999 326.271 365.871 326.53 366.358 326.77C367.434 327.441 368.702 332.116 368.798 333.204C369.237 338.143 376.984 366.005 375.277 368.787C372.691 370.36 367.141 369.572 364.054 369.399L348.952 368.527C345.939 368.458 338.434 368.978 336.331 366.773C335.852 366.271 335.612 365.86 335.698 365.154C336.069 362.115 357.535 333.67 360.895 329.649C361.987 328.343 363.066 327.225 364.412 326.179Z" fill="#371F18"/>
<path d="M364.412 326.179C364.999 326.271 365.871 326.531 366.358 326.771C367.434 327.441 368.702 332.117 368.798 333.205C369.237 338.144 376.984 366.006 375.277 368.787C372.691 370.36 367.141 369.573 364.054 369.399L348.952 368.527C345.939 368.459 338.434 368.978 336.331 366.773C335.852 366.272 335.612 365.86 335.698 365.154C336.069 362.116 357.535 333.67 360.895 329.65C361.987 328.344 363.066 327.226 364.412 326.179Z" fill="#141414"/>
<path d="M362.6 338.916C363.719 339.975 367.459 359.677 368.075 362.763C363.211 362.695 357.121 362.203 352.188 361.965C350.151 361.84 348.083 361.775 346.042 361.692C351.118 353.942 357.039 346.367 362.6 338.916Z" fill="#92FFFE"/>
<path d="M114.064 307.2C114.651 307.292 115.523 307.551 116.01 307.791C117.086 308.462 118.354 313.137 118.45 314.225C118.889 319.164 126.636 347.026 124.929 349.808C122.343 351.381 116.793 350.593 113.706 350.42L98.6045 349.548C95.591 349.479 88.0865 349.999 85.983 347.794C85.5045 347.292 85.2645 346.881 85.3505 346.175C85.721 343.136 107.187 314.691 110.547 310.67C111.639 309.364 112.718 308.246 114.064 307.2Z" fill="#141414"/>
<path d="M112.252 319.937C113.372 320.996 117.112 340.698 117.728 343.784C112.863 343.716 106.774 343.224 101.84 342.986C99.8038 342.861 97.7358 342.796 95.6948 342.713C100.77 334.963 106.691 327.388 112.252 319.937Z" fill="#92FFFE"/>
<path d="M430.865 66.923C437.569 67.034 445.39 67.453 452.017 68.484C465.487 70.58 474.357 83.8315 473.78 97.007C473.387 105.979 472.759 114.73 472.146 123.598L468.982 169.072L458.75 314.637L453.147 402.036L451.547 427.302C450.362 445.304 451.079 457.591 432.513 466.559C425.293 469.326 410.631 468.425 402.906 467.407C419.146 456.943 419.169 446.299 420.297 428.543L421.918 401.365L428.064 312.751L437.936 171.031L441.373 122.048C441.977 113.293 442.733 104.211 443.079 95.457C443.637 81.3765 439.862 76.4865 430.865 66.923Z" fill="#1C1C1C"/>
</svg>
