
<svg width="120" height="120" viewBox="0 0 120 120" fill="none" xmlns="http://www.w3.org/2000/svg">
<style>@media (prefers-color-scheme: light) { :root { filter: none; } }
@media (prefers-color-scheme: dark) { :root { filter: none; } }
</style>
<path d="M20.1542 8.75307C21.1386 8.62554 22.9823 8.82752 24.0104 8.89576L29.4506 9.22755L50.7911 10.6447L86.6803 13.1022L98.5196 13.9145C101.046 14.0853 103.632 14.2203 106.123 14.5231C109.519 14.9359 112.203 18.2015 112.515 21.5087C112.643 22.8657 112.48 24.474 112.401 25.845L111.878 33.615L110.116 58.9938L108.099 88.6221L107.458 99.3056C107.346 100.983 107.29 102.796 107.055 104.452C106.507 108.318 103.454 110.963 99.6824 111.302C98.7388 111.415 97.1867 111.225 96.1973 111.15C94.9607 111.056 93.7276 110.964 92.4883 110.883L75.8957 109.841L35.1259 107.171L21.2972 106.248C18.9945 106.097 16.6609 106.008 14.367 105.779C12.9335 105.636 11.7828 105.233 10.6242 104.368C8.92448 103.1 7.7263 101.087 7.44073 98.9826C7.27383 97.753 7.44502 95.9943 7.53543 94.7395L7.87841 89.8985L9.24592 70.0155L11.8111 33.9233L12.6424 21.9992C12.7933 19.8075 12.889 17.6012 13.1338 15.4237C13.4094 12.9723 14.8237 10.9981 16.9377 9.77337C17.9921 9.16243 18.9569 8.91499 20.1542 8.75307Z" fill="#CCCCCC"/>
<path d="M14.5815 17.873C14.5659 15.7031 14.8439 13.7905 16.4232 12.1587C17.5007 11.0456 19.2557 10.3053 20.8014 10.3303C22.7613 10.3619 24.7909 10.5159 26.7559 10.6375L35.9074 11.207L63.2038 13.0165L85.5457 14.5805L92.3011 15.0668C95.228 15.2661 98.197 15.0654 100.437 17.3224C103.154 20.0596 102.266 23.7566 102.02 27.2385L101.289 37.4388L99.1252 68.8517L97.5006 92.4459L97.0572 99.3538C96.8872 102.137 97.035 105.204 94.8359 107.285C93.421 108.623 91.5474 109.263 89.6108 109.161C87.8582 109.077 86.1008 108.955 84.3495 108.843L74.9946 108.26L42.7269 106.164L23.458 104.869L17.3779 104.457C16.3222 104.385 14.919 104.345 13.905 104.162C10.6684 103.577 8.77 100.43 8.96415 97.2773C9.00114 96.5847 9.09491 95.9188 9.12834 95.2453C9.19934 92.1969 9.59418 88.3554 9.82178 85.2319L11.024 68.0132L14.5815 17.873Z" fill="#E8E8E8"/>
<path d="M14.5815 17.873C14.5659 15.7031 14.8439 13.7905 16.4232 12.1587C17.5007 11.0456 19.2557 10.3053 20.8014 10.3303C22.7613 10.3619 24.7909 10.5159 26.7559 10.6375L35.9074 11.207L63.2038 13.0165L85.5457 14.5805L92.3011 15.0668C95.228 15.2661 98.197 15.0654 100.437 17.3224C103.154 20.0596 102.266 23.7566 102.02 27.2385L101.289 37.4388L99.1252 68.8517L97.5006 92.4459L97.0572 99.3538C96.8872 102.137 97.035 105.204 94.8359 107.285C93.421 108.623 91.5474 109.263 89.6108 109.161C87.8582 109.077 86.1008 108.955 84.3495 108.843L74.9946 108.26L42.7269 106.164L23.458 104.869L17.3779 104.457C16.3222 104.385 14.919 104.345 13.905 104.162C10.6684 103.577 8.77 100.43 8.96415 97.2773C9.00114 96.5847 9.09491 95.9188 9.12834 95.2453C9.13053 95.8564 9.20474 96.1567 9.37412 96.7389C10.7002 101.297 15.2637 100.839 19.0631 101.021L25.8499 101.408L49.5697 102.825L75.6524 104.416L84.2254 104.942C85.7468 105.038 87.2595 105.142 88.7884 105.229C90.9993 105.388 93.073 103.961 94.0526 102.024C94.8409 100.466 94.7261 98.4415 94.8162 96.7085L95.1607 90.4856L96.5417 67.5415L98.5019 38.1479L99.0706 29.8947C99.1866 28.2773 99.3287 26.655 99.4166 25.0366C99.4239 24.2826 99.5086 23.3733 99.2475 22.6523C98.3569 20.1937 96.4615 19.3049 93.9831 19.1587C92.5972 19.0771 91.2152 18.9943 89.8511 18.9142L82.9554 18.4605L58.4763 16.779L33.0097 15.0348L25.0268 14.4767C23.5138 14.3694 22.0051 14.2537 20.4887 14.1718C18.8041 14.0806 17.2316 14.5926 16.0124 15.7802C15.3387 16.4365 14.9997 17.0428 14.5815 17.873Z" fill="#E6E6E6"/>
<path d="M24.8081 17.6512C25.5228 17.5943 26.7917 17.7342 27.5642 17.794L31.3602 18.0624L45.941 19.0713L77.4934 21.2006L87.2656 21.8789C88.6708 21.9759 90.0854 22.0037 91.4865 22.1461C92.4282 22.2417 93.4388 22.3747 94.2741 22.8527C95.2571 23.4152 95.9714 24.5011 96.2523 25.5819C96.5877 26.8725 95.9052 33.8578 95.7821 35.6296L94.5658 53.0439L94.0455 60.8765C93.944 62.5231 93.8534 64.1899 93.7019 65.8318C93.6436 66.4648 93.4773 67.1088 93.1442 67.6509C92.3737 68.9048 91.4193 69.368 90.0542 69.7144C89.1677 69.7959 87.6839 69.6722 86.784 69.6114L82.3987 69.3144L66.6912 68.2782L37.4138 66.3455L27.3777 65.6614C25.558 65.5358 23.7055 65.4291 21.9029 65.2655C20.3341 65.123 18.7887 63.7272 18.5416 62.1592C18.3499 60.9423 18.4993 59.6654 18.5869 58.4467L18.8251 55.0316L19.6809 42.4744L20.5669 28.5949L20.8214 24.3028C21.0003 21.1453 20.9987 18.3555 24.8081 17.6512Z" fill="#606060"/>
<path d="M22.5539 21.6874C22.8992 19.9584 23.9516 19.0617 25.7232 19.1679C27.0933 19.25 28.458 19.3766 29.8254 19.4723L38.8629 20.0952L67.9188 22.0803L85.3296 23.2363L89.3714 23.5155C90.4539 23.5822 91.5571 23.6102 92.6177 23.8248C93.3554 23.974 94.0678 24.5464 94.4372 25.1878C95.1163 26.3671 94.7651 28.328 94.6711 29.679L94.2796 35.1613L93.0835 51.9752L92.4532 61.4758C92.3562 63.0444 92.3644 64.7096 92.0766 66.2423C91.8381 67.1714 91.0035 68.1191 89.9994 68.1895C89.5283 68.2224 88.9839 68.1648 88.505 68.1425C86.5715 68.0528 84.4781 68.03 82.5626 67.7924L40.9184 64.958L28.0485 64.1014L24.4089 63.8797C23.586 63.8332 22.747 63.8062 21.9335 63.6971C20.7489 63.5382 20.0091 62.4412 20.0226 61.291C20.0382 59.9737 20.1485 58.6696 20.2399 57.3581L20.7566 49.922L21.9104 31.8928C22.1229 28.5785 22.4217 24.9894 22.5539 21.6874Z" fill="#0A0A0A"/>
<path d="M22.554 21.6874C22.8993 19.9584 23.9517 19.0617 25.7233 19.1679C27.0933 19.25 28.4581 19.3766 29.8254 19.4723L38.8629 20.0952L67.9189 22.0803L85.3297 23.2363L89.3715 23.5155C90.4539 23.5822 91.5571 23.6102 92.6178 23.8248C93.3555 23.974 94.0679 24.5464 94.4372 25.1878C95.1163 26.3671 94.7651 28.328 94.6711 29.679L94.2796 35.1613L93.0836 51.9752L92.4533 61.4758C92.3562 63.0444 92.3644 64.7096 92.0766 66.2423C91.8381 67.1714 91.0035 68.1191 89.9995 68.1895C89.5284 68.2224 88.9839 68.1648 88.5051 68.1425C86.5716 68.0528 84.4782 68.03 82.5626 67.7924C84.1751 66.508 85.2947 65.51 85.7765 63.4112C86.2227 61.4669 86.3915 59.4857 86.6187 57.5059L87.6953 48.0438L88.7458 38.7987C88.9054 37.3888 89.0801 35.972 89.2077 34.5646C89.4194 32.2302 89.0649 30.4316 87.3603 28.7612C85.4085 26.8487 82.877 26.9032 80.3363 26.6962L74.8764 26.2419L57.0992 24.6724L41.1098 23.2711L36.4961 22.8579C35.755 22.7882 34.4622 22.6305 33.7656 22.6432C33.1538 22.5088 32.8921 22.4878 32.2714 22.541C31.7066 22.4255 30.3214 22.3641 29.6767 22.2997C27.3387 22.0664 24.8734 22.0119 22.554 21.6874Z" fill="#111111"/>
<path d="M32.2713 22.541C32.8921 22.4878 33.1538 22.5088 33.7656 22.6432C34.4984 23.179 35.0563 24.0451 34.6245 24.9662C33.4623 27.4451 30.4909 29.4242 28.1571 30.7235C27.3642 31.1649 26.0406 31.5778 25.1762 31.2705C24.2079 30.913 23.8419 29.694 24.2994 28.8053C25.7523 25.9828 29.4345 23.7395 32.2713 22.541Z" fill="#FEFEFE"/>
<path d="M38.8088 26.1506C40.7919 26.2144 41.0861 28.4284 40.0494 29.6325C37.9591 32.0603 33.6865 36.3437 30.5315 36.8711C29.7476 36.8283 28.7043 36.479 28.5755 35.6078C28.3366 33.9922 29.8983 32.5238 30.9657 31.5237C32.9206 29.692 36.1464 26.6238 38.8088 26.1506Z" fill="#FEFEFE"/>
<path d="M20.61 88.0093C21.2939 87.9705 22.597 88.0631 23.3061 88.1054L27.7016 88.3694L43.6653 89.2639L71.4215 90.9258C75.7596 91.1862 80.1318 91.3708 84.4373 91.6887C88.155 91.9632 88.158 94.7973 87.9079 97.5589C87.6489 100.419 87.9826 102.068 84.5756 102.994C83.3631 103.031 81.9116 102.898 80.6795 102.818L74.8494 102.455L54.2277 101.261L31.6901 99.8865L24.8589 99.4936C23.2681 99.4065 21.6289 99.3042 20.0544 99.1625C18.6462 99.0358 17.1072 97.575 17.03 96.2022C16.9404 95.327 17.0766 94.4515 17.1141 93.5775C17.2253 90.9907 17.1516 88.3505 20.61 88.0093Z" fill="#141414"/>
<path d="M86.7104 98.9836C86.5756 100.658 85.5959 101.068 84.0568 100.991C82.8662 100.932 81.6719 100.878 80.4806 100.807L70.9317 100.227L34.7706 97.9845L26.4026 97.4668C24.9292 97.3773 23.4442 97.3051 21.9737 97.1818C21.5875 97.1061 21.1402 97.1298 20.8124 96.8912C20.0602 96.3436 19.9619 95.789 20.0104 94.9227C20.0822 93.6379 20.155 92.3666 20.239 91.0815C20.2875 90.3395 20.3883 89.854 21.0132 89.355C21.6454 88.8589 22.6139 88.9998 23.3603 89.0897L65.6104 91.5787L78.5444 92.3685L82.5054 92.5929C86.0367 92.774 87.4324 92.5037 86.8848 96.7719C86.812 97.3396 86.847 98.5135 86.7104 98.9836Z" fill="#9A9A9A"/>
<path d="M86 98.9836C85.8646 100.658 84.8806 101.068 83.3348 100.991C82.1391 100.932 80.9396 100.878 79.7431 100.807L70.1527 100.227L33.8347 97.9845L25.4304 97.4668C23.9506 97.3773 22.4591 97.3051 20.9823 97.1818C20.5944 97.1061 20.1451 97.1298 19.8159 96.8912C19.0604 96.3436 18.9617 95.789 19.0104 94.9227C19.0825 93.6379 19.1557 92.3666 19.24 91.0815C19.2887 90.3395 19.39 89.854 20.0176 89.355C20.6525 88.8589 21.6253 88.9998 22.3749 89.0897C22.603 90.4 22.4877 91.7981 23.221 92.9692C24.7342 95.3854 28.1956 95.1547 30.7392 95.3201L38.1945 95.8118C51.6012 96.7072 64.9052 97.6857 78.3246 98.4191L84.3428 98.783C84.694 98.8064 85.8022 98.8178 86 98.9836Z" fill="#FEFEFE"/>
<path d="M41.7233 78.1726C42.9037 78.1232 44.9023 78.3332 46.1376 78.4136L54.0454 78.8956L65.1928 79.6103C65.7764 79.6475 71.7574 79.9344 71.8599 80.2099C72.2349 81.2178 71.8993 83.7522 71.7841 84.8964C71.759 85.1466 71.5127 85.2713 71.3135 85.382C69.9138 85.3624 68.2651 85.2053 66.8521 85.1053L60.0826 84.6514L48.4496 83.9001C47.8501 83.8637 41.3783 83.634 41.1458 83.2561C40.7516 82.6154 41.1979 79.6648 41.2462 78.7795C41.2626 78.4782 41.4791 78.3276 41.7233 78.1726Z" fill="#141414"/>
<path d="M42.7872 79.8467C48.5098 80.0663 54.2002 80.4952 59.9149 80.8463L66.5673 81.2536C67.8055 81.3291 69.2276 81.3746 70.4354 81.5252C70.4293 82.3311 70.3871 82.9791 70.255 83.7732C69.8096 83.8129 68.1007 83.6556 67.5895 83.6185L62.4789 83.2728L42.6524 82.0455C42.6483 81.3716 42.7208 80.5139 42.7872 79.8467Z" fill="#92FFFE"/>
<path d="M85.4091 76.4482C85.5466 76.4698 85.751 76.5306 85.8653 76.5869C86.1175 76.744 86.4145 77.8398 86.4371 78.0948C86.54 79.2524 88.3556 85.7826 87.9557 86.4345C87.3494 86.8032 86.0488 86.6186 85.3253 86.5779L81.7857 86.3736C81.0795 86.3575 79.3206 86.4793 78.8276 85.9625C78.7154 85.8449 78.6592 85.7485 78.6793 85.583C78.7662 84.8709 83.7973 78.204 84.5849 77.2616C84.8407 76.9556 85.0936 76.6935 85.4091 76.4482Z" fill="#371F18"/>
<path d="M85.4091 76.4482C85.5466 76.4698 85.751 76.5306 85.8653 76.5869C86.1175 76.744 86.4145 77.8398 86.4371 78.0948C86.54 79.2524 88.3556 85.7826 87.9557 86.4345C87.3494 86.8032 86.0488 86.6186 85.3253 86.5779L81.7857 86.3736C81.0795 86.3575 79.3206 86.4793 78.8276 85.9625C78.7154 85.8449 78.6592 85.7485 78.6793 85.583C78.7662 84.8709 83.7973 78.204 84.5849 77.2616C84.8407 76.9556 85.0936 76.6935 85.4091 76.4482Z" fill="#141414"/>
<path d="M84.9844 79.4335C85.2468 79.6817 86.1234 84.2993 86.2677 85.0225C85.1276 85.0067 83.7004 84.8914 82.5441 84.8356C82.0668 84.8063 81.5821 84.7909 81.1038 84.7715C82.2933 82.9552 83.6811 81.1797 84.9844 79.4335Z" fill="#92FFFE"/>
<path d="M26.7338 72C26.8713 72.0216 27.0757 72.0824 27.19 72.1386C27.4422 72.2958 27.7392 73.3916 27.7618 73.6466C27.8647 74.8042 29.6803 81.3343 29.2804 81.9862C28.6742 82.3549 27.3735 82.1704 26.65 82.1297L23.1104 81.9253C22.4042 81.9093 20.6453 82.031 20.1523 81.5142C20.0401 81.3967 19.9839 81.3002 20.004 81.1348C20.0909 80.4226 25.122 73.7557 25.9096 72.8134C26.1654 72.5073 26.4183 72.2453 26.7338 72Z" fill="#141414"/>
<path d="M26.3091 74.9852C26.5715 75.2334 27.4481 79.8511 27.5924 80.5743C26.4523 80.5584 25.0251 80.4431 23.8688 80.3873C23.3915 80.358 22.9068 80.3427 22.4285 80.3232C23.618 78.507 25.0058 76.7314 26.3091 74.9852Z" fill="#92FFFE"/>
<path d="M100.984 15.6851C102.555 15.7111 104.388 15.8093 105.941 16.0509C109.098 16.5422 111.177 19.648 111.042 22.736C110.95 24.8389 110.803 26.8899 110.659 28.9683L109.917 39.6263L107.52 73.7431L106.206 94.2272L105.831 100.149C105.553 104.368 105.722 107.248 101.37 109.35C99.6779 109.998 96.2416 109.787 94.4312 109.549C98.2373 107.096 98.2427 104.601 98.5071 100.44L98.8871 94.0699L100.327 73.301L102.641 40.0855L103.447 28.6051C103.588 26.553 103.765 24.4244 103.847 22.3727C103.977 19.0726 103.092 17.9265 100.984 15.6851Z" fill="#1C1C1C"/>
</svg>
